<?xml version="1.0" standalone="no"?>
<!DOCTYPE svg PUBLIC "-//W3C//DTD SVG 20010904//EN"
 "http://www.w3.org/TR/2001/REC-SVG-20010904/DTD/svg10.dtd">
<svg version="1.0" xmlns="http://www.w3.org/2000/svg"
 width="260.000000pt" height="260.000000pt" viewBox="0 0 260.000000 260.000000"
 preserveAspectRatio="xMidYMid meet">
<metadata>
Created by potrace 1.11, written by Peter Selinger 2001-2013
</metadata>
<g transform="translate(0.000000,260.000000) scale(0.100000,-0.100000)"
fill="#000000" stroke="none">
<path d="M331 2531 l-28 -30 1 -1206 1 -1207 28 -24 c31 -26 24 -26 361 -25
149 1 178 9 195 54 5 12 8 262 8 555 0 293 2 535 4 537 3 2 60 -71 127 -163
67 -92 214 -293 328 -447 113 -154 246 -335 296 -402 64 -87 96 -123 111 -124
12 -1 139 -3 282 -4 284 -2 305 1 322 52 15 43 5 64 -92 190 -49 64 -257 335
-462 601 l-372 484 117 147 c64 80 119 148 122 151 3 3 18 23 35 45 16 22 35
46 42 53 7 8 26 30 41 50 15 21 29 39 33 42 11 10 437 547 454 574 24 36 11
95 -25 113 -34 17 -498 18 -535 1 -14 -6 -25 -14 -25 -18 0 -3 -8 -15 -18 -26
-10 -10 -37 -44 -61 -74 -24 -30 -56 -71 -72 -90 -37 -45 -120 -149 -349 -435
-101 -126 -187 -232 -190 -235 -3 -3 -19 -23 -36 -45 -16 -22 -40 -52 -54 -67
l-25 -28 0 491 0 491 -28 24 c-28 24 -29 24 -269 24 l-240 0 -27 -29z"/>
</g>
</svg>
